<svg xmlns="http://www.w3.org/2000/svg" id="f17_1_on" viewBox="0 0 100 100" class="on" fill="white" stroke="white">
    <path d="M50 0L50 0Q39.80 0 30.50 3.90L30.50 3.90Q21.60 7.70 14.65 14.65Q7.70 21.60 3.90 30.50L3.90 30.50Q0 39.80 0 50Q0 60.20 3.90 69.50L3.90 69.50Q7.70 78.40 14.65 85.35Q21.60 92.30 30.50 96.10L30.50 96.10Q39.80 100 50 100Q60.20 100 69.50 96.10L69.50 96.10Q78.40 92.30 85.35 85.35Q92.30 78.40 96.10 69.50L96.10 69.50Q100 60.20 100 50Q100 39.80 96.10 30.50L96.10 30.50Q92.30 21.60 85.35 14.65Q78.40 7.70 69.50 3.90L69.50 3.90Q60.20 0 50 0ZM23.40 61.60L23.40 34.90L42 34.90L42 39.60L29.10 39.60L29.10 46.20L41.20 46.20L41.20 50.90L29.10 50.90L29.10 61.60L23.40 61.60ZM55.40 61.60L49.60 61.60L49.60 41.70Q48.60 42.10 47.15 42.40Q45.70 42.70 44.70 42.80L44.70 42.80L44.70 38.50Q46.60 38.10 48.40 37.15Q50.20 36.20 51.40 34.90L51.40 34.90L55.40 34.90L55.40 61.60ZM60.50 34.90L79 34.90L79 39.20Q75.60 44 73.10 49.80L73.10 49.80Q70.30 56.10 69.60 61.60L69.60 61.60L63.60 61.60Q64.30 56.10 67.30 49.40L67.30 49.40Q70 43.60 73.10 39.70L73.10 39.70L60.50 39.70L60.50 34.90Z" id="path_f17_1_on" />
</svg>