<svg xmlns="http://www.w3.org/2000/svg" id="gss_1_on" viewBox="0 0 100 100" class="on" fill="white" stroke="white">
    <path d="M69.40 71L69.40 71Q69.90 71.40 70.75 71.40Q71.60 71.40 72.30 70.95Q73 70.50 73.40 69.80L73.40 69.80Q76.30 64.30 76.30 58.55Q76.30 52.80 73.80 47.80L73.80 47.80Q73.30 46.70 72.10 46.30Q70.90 45.90 69.80 46.45Q68.70 47 68.30 48.20Q67.90 49.40 68.40 50.50L68.40 50.50Q70.30 54.20 70.30 58.60Q70.30 63 68.10 67L68.10 67Q67.60 68.10 67.95 69.25Q68.30 70.40 69.40 71ZM78.30 46.50L78.30 46.50Q77.20 47 76.80 48.20Q76.40 49.40 77 50.50L77 50.50Q78.80 54.20 78.80 58.55Q78.80 62.90 76.70 67L76.70 67Q76.10 68 76.45 69.20Q76.80 70.40 77.90 71L77.90 71Q78.60 71.40 79.35 71.40Q80.10 71.40 80.85 70.95Q81.60 70.50 82 69.80L82 69.80Q84.80 64.50 84.80 58.50L84.80 58.50Q84.80 52.80 82.30 47.80L82.30 47.80Q81.80 46.70 80.60 46.30Q79.40 45.90 78.30 46.50ZM90.90 47.80L90.90 47.80Q90.40 46.70 89.20 46.30Q88 45.90 86.90 46.45Q85.80 47 85.40 48.20Q85 49.40 85.50 50.50L85.50 50.50Q87.40 54.20 87.40 58.60Q87.40 63 85.20 67L85.20 67Q84.70 68.10 85.05 69.25Q85.40 70.40 86.50 71L86.50 71Q87 71.40 87.85 71.40Q88.70 71.40 89.40 70.95Q90.10 70.50 90.50 69.80L90.50 69.80Q93.40 64.30 93.40 58.55Q93.40 52.80 90.90 47.80ZM83.10 91.20L83.10 91.20L59.10 91.20L59.10 81.50L63.80 81.50Q64.20 81.50 64.50 81.20Q64.80 80.90 64.80 80.50L64.80 80.50L64.80 73.70Q64.80 73.30 64.50 73Q64.20 72.70 63.80 72.70L63.80 72.70L56.10 72.70L56.10 67.90L58 67.90Q58.40 67.90 58.70 67.60Q59 67.30 59 66.90L59 66.90L59 42.50Q59 42.10 58.70 41.80Q58.40 41.50 58 41.50L58 41.50L48.20 41.50Q47.80 41.50 47.50 41.80Q47.20 42.10 47.20 42.50L47.20 42.50L47.20 66.90Q47.20 67.30 47.50 67.60Q47.80 67.90 48.20 67.90L48.20 67.90L50.10 67.90L50.10 72.70L38.30 72.70L37.90 68.10L39.80 68.10Q41.10 68.10 42 67.15Q42.90 66.20 42.90 64.90Q42.90 63.60 42 62.70Q41.10 61.80 39.80 61.80L39.80 61.80L24.20 61.80L24.20 31.30L52.80 23.90L52.80 27.30L51.30 27.30Q50.90 27.30 50.60 27.55Q50.30 27.80 50.30 28.30L50.30 28.30L50.30 34.70Q50.30 35.10 50.60 35.40Q50.90 35.70 51.30 35.70L51.30 35.70L74.40 35.70Q74.80 35.70 75.10 35.40Q75.40 35.10 75.40 34.70L75.40 34.70L75.40 28.30Q75.40 27.80 75.15 27.55Q74.90 27.30 74.40 27.30L74.40 27.30L72.90 27.30L72.90 18.80L83.30 16.10Q84.10 15.90 84.10 15.10L84.10 15.10L84.10 8.10Q84.10 7.60 83.75 7.35Q83.40 7.10 82.80 7.10L82.80 7.10L17.20 24.40Q16.90 24.50 16.70 24.75Q16.50 25 16.50 25.30L16.50 25.30L16.50 92.20Q16.50 92.60 16.80 92.90Q17.10 93.20 17.50 93.20L17.50 93.20L83.10 93.20Q83.50 93.20 83.80 92.90Q84.10 92.60 84.10 92.20Q84.10 91.80 83.80 91.50Q83.50 91.20 83.10 91.20ZM54.80 27.30L54.80 23.40L70.90 19.30L70.90 27.30L54.80 27.30ZM31.90 72.70L24.20 72.70L24.20 68.10L31.60 68.10L31.90 72.70ZM36.10 72.70L34.10 72.70L33.80 68.10L35.80 68.10L36.10 72.70ZM53.10 46.10L53.10 46.10Q54.40 46.10 55.30 47Q56.20 47.90 56.20 49.20Q56.20 50.50 55.30 51.45Q54.40 52.40 53.10 52.40Q51.80 52.40 50.85 51.45Q49.90 50.50 49.90 49.20Q49.90 47.90 50.85 47Q51.80 46.10 53.10 46.10ZM54.10 67.90L54.10 72.70L52.10 72.70L52.10 67.90L54.10 67.90ZM53.10 63.20L53.10 63.20Q51.80 63.20 50.85 62.25Q49.90 61.30 49.90 60Q49.90 58.70 50.85 57.80Q51.80 56.90 53.10 56.90Q54.40 56.90 55.30 57.80Q56.20 58.70 56.20 60Q56.20 61.30 55.30 62.25Q54.40 63.20 53.10 63.20Z" id="path_gss_1_on" />
</svg>