<svg xmlns="http://www.w3.org/2000/svg" id="navas_1_off" viewBox="0 0 100 100" class="off" fill="white" stroke="white">
    <path d="M56.80 90L56.80 90L43.20 90Q41.30 90 39.95 88.65Q38.60 87.30 38.60 85.40L38.60 85.40L38.60 79.90Q33.90 78.10 29.80 74.80L29.80 74.80L25.10 77.60Q23.40 78.50 21.60 78Q19.80 77.50 18.80 75.90L18.80 75.90L12 64.10Q11 62.50 11.50 60.65Q12 58.80 13.60 57.80L13.60 57.80L18.30 55.10Q17.90 52.80 17.90 49.90Q17.90 47 18.30 44.90L18.30 44.90L13.60 42.20Q12 41.20 11.50 39.35Q11 37.50 12 35.90L12 35.90L18.80 24.10Q19.80 22.40 21.65 21.90Q23.50 21.40 25.10 22.40L25.10 22.40L29.70 25.10Q34.10 21.60 38.60 19.90L38.60 19.90L38.60 14.60Q38.60 12.70 39.95 11.35Q41.30 10 43.20 10L43.20 10L56.80 10Q58.70 10 60.05 11.35Q61.40 12.70 61.40 14.60L61.40 14.60L61.40 19.90Q66.20 21.70 70.30 25.10L70.30 25.10L75 22.40Q76.60 21.40 78.45 21.90Q80.30 22.40 81.20 24.10L81.20 24.10L88.10 35.90Q89 37.50 88.50 39.35Q88 41.20 86.40 42.20L86.40 42.20L81.70 44.90Q82.10 47 82.10 49.90Q82.10 52.80 81.70 55.10L81.70 55.10L86.40 57.80Q88 58.80 88.50 60.65Q89 62.50 88.10 64.10L88.10 64.10L81.20 75.90Q80.30 77.60 78.45 78.10Q76.60 78.60 75 77.60L75 77.60L70.20 74.80Q66.40 78 61.40 79.90L61.40 79.90L61.40 85.40Q61.40 87.30 60.05 88.65Q58.70 90 56.80 90ZM23.60 75L30.10 71.20L30.90 71.90Q35.20 75.60 40.60 77.40L40.60 77.40L41.60 77.80L41.60 85.40Q41.60 86.10 42.05 86.55Q42.50 87 43.20 87L43.20 87L56.80 87Q57.50 87 57.95 86.55Q58.40 86.10 58.40 85.40L58.40 85.40L58.40 77.80L59.40 77.40Q64.80 75.60 69.10 71.90L69.10 71.90L69.90 71.20L76.50 75Q77 75.30 77.65 75.15Q78.30 75 78.60 74.40L78.60 74.40L85.50 62.60Q85.80 62.10 85.60 61.45Q85.40 60.80 84.90 60.40L84.90 60.40L78.30 56.60L78.60 55.60Q79.10 52.40 79.10 49.90Q79.10 47.40 78.60 44.40L78.60 44.40L78.40 43.30L84.90 39.60Q85.40 39.20 85.60 38.55Q85.80 37.90 85.50 37.40L85.50 37.40L78.60 25.60Q78.30 25 77.65 24.85Q77 24.70 76.50 25L76.50 25L70 28.70L69.20 28Q64.80 24.20 59.40 22.40L59.40 22.40L58.40 22L58.40 14.60Q58.40 13.90 57.95 13.45Q57.50 13 56.80 13L56.80 13L43.20 13Q42.50 13 42.05 13.45Q41.60 13.90 41.60 14.60L41.60 14.60L41.60 22L40.60 22.40Q35.20 24.20 30.80 28L30.80 28L30 28.70L23.60 25Q23 24.70 22.35 24.85Q21.70 25 21.40 25.60L21.40 25.60L14.60 37.40Q14.20 37.90 14.40 38.55Q14.60 39.20 15.10 39.60L15.10 39.60L21.60 43.30L21.40 44.40Q20.90 47.40 20.90 49.90L20.90 49.90Q20.90 52.70 21.50 55.60L21.50 55.60L21.70 56.60L15.10 60.40Q14.60 60.80 14.40 61.45Q14.20 62.10 14.60 62.60L14.60 62.60L21.40 74.40Q21.70 75 22.35 75.15Q23 75.30 23.60 75L23.60 75ZM50 70.50L50 70.50Q44.40 70.50 39.70 67.75Q35 65 32.20 60.25Q29.40 55.50 29.40 49.90Q29.40 44.30 32.20 39.55Q35 34.80 39.70 32.05Q44.40 29.30 50 29.30Q55.60 29.30 60.30 32.10Q65 34.90 67.80 39.60Q70.60 44.30 70.60 49.90Q70.60 55.50 67.85 60.20Q65.10 64.90 60.35 67.70Q55.60 70.50 50 70.50ZM50 32.30L50 32.30Q45.20 32.30 41.15 34.65Q37.10 37 34.75 41.05Q32.40 45.10 32.40 49.90Q32.40 54.70 34.75 58.75Q37.10 62.80 41.15 65.15Q45.20 67.50 50 67.50Q54.80 67.50 58.85 65.15Q62.90 62.80 65.25 58.75Q67.60 54.70 67.60 49.90Q67.60 45.10 65.25 41.05Q62.90 37 58.85 34.65Q54.80 32.30 50 32.30Z" id="path_navas_1_off" />
</svg>